<svg xmlns="http://www.w3.org/2000/svg" viewBox="0 0 96 96">
  <defs>
    <linearGradient id="base" x1="0" x2="0" y1="0" y2="1"><stop offset="0" stop-color="#5f6671"/><stop offset=".5" stop-color="#202933"/><stop offset="1" stop-color="#080c12"/></linearGradient>
    <linearGradient id="top" x1="0" x2="0" y1="0" y2="1"><stop offset="0" stop-color="#fff" stop-opacity=".28"/><stop offset="1" stop-color="#fff" stop-opacity=".02"/></linearGradient>
    <filter id="drop" x="-30%" y="-30%" width="160%" height="170%"><feDropShadow dx="0" dy="8" stdDeviation="5" flood-color="#000" flood-opacity=".7"/></filter>
  </defs>
  <rect x="6" y="6" width="84" height="84" rx="15" fill="url(#base)" filter="url(#drop)"/>
  <path d="M14 14h68a10 10 0 0 1 9 7L76 33H20L5 21a10 10 0 0 1 9-7Z" fill="url(#top)"/>
  <path d="M6 22 20 34v44L6 90Z" fill="#747d88" opacity=".14"/>
  <path d="M90 22 76 34v44l14 12Z" fill="#020407" opacity=".38"/>
  <path d="M20 78h56l14 12H6Z" fill="#000" opacity=".34"/>
  <path d="M29 30 67 68M67 30 29 68" stroke="#0b1017" stroke-width="13" stroke-linecap="round"/>
  <path d="M29 30 67 68M67 30 29 68" stroke="#4c5661" stroke-width="5" stroke-linecap="round" opacity=".8"/>
  <rect x="13" y="13" width="70" height="70" rx="11" fill="none" stroke="#fff" stroke-opacity=".1" stroke-width="3"/>
</svg>
