<svg xmlns="http://www.w3.org/2000/svg" viewBox="0 0 96 96">
  <defs>
    <linearGradient id="base" x1="0" x2="0" y1="0" y2="1"><stop offset="0" stop-color="#92ecff"/><stop offset=".48" stop-color="#1badf0"/><stop offset="1" stop-color="#045888"/></linearGradient>
    <linearGradient id="top" x1="0" x2="0" y1="0" y2="1"><stop offset="0" stop-color="#fff" stop-opacity=".78"/><stop offset="1" stop-color="#fff" stop-opacity=".08"/></linearGradient>
    <filter id="drop" x="-30%" y="-30%" width="160%" height="170%"><feDropShadow dx="0" dy="8" stdDeviation="5" flood-color="#000" flood-opacity=".62"/></filter>
  </defs>
  <rect x="6" y="6" width="84" height="84" rx="15" fill="url(#base)" filter="url(#drop)"/>
  <path d="M14 14h68a10 10 0 0 1 9 7L76 33H20L5 21a10 10 0 0 1 9-7Z" fill="url(#top)"/>
  <path d="M6 22 20 34v44L6 90Z" fill="#58d7ff" opacity=".36"/>
  <path d="M90 22 76 34v44l14 12Z" fill="#033958" opacity=".3"/>
  <path d="M20 78h56l14 12H6Z" fill="#03324f" opacity=".33"/>
  <rect x="13" y="13" width="70" height="70" rx="11" fill="none" stroke="#fff" stroke-opacity=".24" stroke-width="3"/>
</svg>
