<svg xmlns="http://www.w3.org/2000/svg" viewBox="0 0 512 1051">
  <defs>
    <linearGradient id="frame" x1="0" x2="0" y1="0" y2="1">
      <stop offset="0" stop-color="#2d5f9b"/>
      <stop offset=".12" stop-color="#0d2748"/>
      <stop offset="1" stop-color="#08182c"/>
    </linearGradient>
    <linearGradient id="field" x1="0" x2="0" y1="0" y2="1">
      <stop offset="0" stop-color="#102947"/>
      <stop offset=".5" stop-color="#071a2e"/>
      <stop offset="1" stop-color="#07111f"/>
    </linearGradient>
    <filter id="shadow" x="-20%" y="-20%" width="140%" height="160%">
      <feDropShadow dx="0" dy="8" stdDeviation="7" flood-color="#000" flood-opacity=".65"/>
    </filter>
    <pattern id="grid" width="24" height="24" patternUnits="userSpaceOnUse">
      <path d="M24 0H0v24" fill="none" stroke="#7fbaff" stroke-opacity=".055"/>
    </pattern>
  </defs>
  <rect width="512" height="1051" fill="#030508"/>
  <rect x="4" y="4" width="504" height="1043" rx="34" fill="url(#frame)" stroke="#67a3e8" stroke-width="4"/>
  <rect x="24" y="16" width="464" height="164" rx="28" fill="#081422" stroke="#6ea4df" stroke-width="2" filter="url(#shadow)"/>
  <text x="84" y="72" text-anchor="middle" font-family="Arial" font-size="13" font-weight="900" fill="#c8d5e7">Stage</text>
  <rect x="31" y="81" width="106" height="59" rx="10" fill="#0c192d" stroke="#5f8fc5" stroke-width="2"/>
  <text x="84" y="121" text-anchor="middle" font-family="Arial Black, Arial" font-size="30" fill="#fff">28</text>
  <image href="logo-rolling-block-strike.svg" x="154" y="34" width="205" height="122"/>
  <text x="425" y="56" text-anchor="middle" font-family="Arial" font-size="13" font-weight="900" fill="#c8d5e7">Score</text>
  <rect x="366" y="65" width="112" height="59" rx="10" fill="#0c192d" stroke="#5f8fc5" stroke-width="2"/>
  <text x="422" y="105" text-anchor="middle" font-family="Arial Black, Arial" font-size="27" fill="#fff">16,450</text>
  <text x="424" y="146" text-anchor="middle" font-family="Arial" font-size="13" font-weight="900" fill="#c8d5e7">Lives</text>
  <image href="heart.svg" x="370" y="153" width="31" height="31"/>
  <image href="heart.svg" x="407" y="153" width="31" height="31"/>
  <image href="heart.svg" x="444" y="153" width="31" height="31"/>
  <rect x="16" y="199" width="480" height="728" rx="28" fill="url(#field)" stroke="#4a8bd3" stroke-width="5"/>
  <rect x="28" y="213" width="456" height="700" rx="18" fill="url(#grid)" stroke="#ffffff" stroke-opacity=".08" stroke-width="2"/>
  <g transform="translate(31 260)">
    <image href="block-red.svg" x="0" y="0" width="56" height="56"/><text x="28" y="34" text-anchor="middle" font-family="Arial Black, Arial" font-size="18" fill="#fff">60</text>
    <image href="block-orange.svg" x="64" y="0" width="56" height="56"/><text x="92" y="34" text-anchor="middle" font-family="Arial Black, Arial" font-size="18" fill="#fff">80</text>
    <image href="block-red.svg" x="128" y="0" width="56" height="56"/><text x="156" y="34" text-anchor="middle" font-family="Arial Black, Arial" font-size="18" fill="#fff">60</text>
    <image href="block-orange.svg" x="192" y="0" width="56" height="56"/><text x="220" y="34" text-anchor="middle" font-family="Arial Black, Arial" font-size="18" fill="#fff">80</text>
    <image href="block-red.svg" x="256" y="0" width="56" height="56"/><text x="284" y="34" text-anchor="middle" font-family="Arial Black, Arial" font-size="18" fill="#fff">60</text>
    <image href="block-orange.svg" x="320" y="0" width="56" height="56"/><text x="348" y="34" text-anchor="middle" font-family="Arial Black, Arial" font-size="18" fill="#fff">80</text>
    <image href="block-red.svg" x="384" y="0" width="56" height="56"/><text x="412" y="34" text-anchor="middle" font-family="Arial Black, Arial" font-size="18" fill="#fff">60</text>
  </g>
  <image href="item-rocket.svg" x="87" y="956" width="48" height="48"/>
  <image href="item-ball.svg" x="155" y="956" width="48" height="48"/>
  <image href="item-wide.svg" x="223" y="956" width="48" height="48"/>
  <image href="item-bomb.svg" x="291" y="956" width="48" height="48"/>
  <image href="item-shield.svg" x="359" y="956" width="48" height="48"/>
</svg>
