<svg xmlns="http://www.w3.org/2000/svg" viewBox="0 0 96 96">
  <defs><linearGradient id="g" x1="0" x2="0" y1="0" y2="1"><stop offset="0" stop-color="#8ceeff"/><stop offset=".55" stop-color="#179ee9"/><stop offset="1" stop-color="#07518d"/></linearGradient><filter id="s" x="-30%" y="-30%" width="160%" height="160%"><feDropShadow dx="0" dy="5" stdDeviation="4" flood-color="#00151c" flood-opacity=".55"/></filter></defs>
  <rect x="7" y="7" width="82" height="82" rx="18" fill="url(#g)" filter="url(#s)"/>
  <path d="M18 18h60" stroke="#fff" stroke-width="8" stroke-linecap="round" opacity=".35"/>
  <path d="M56 19c12 3 20 11 23 23-11 1-22 8-30 20L35 48c8-12 15-23 21-29Z" fill="#fff" stroke="#12345f" stroke-width="4"/>
  <path d="m35 48-15 5 10 8M49 62l-5 15-8-10" fill="#ff4f5d" stroke="#12345f" stroke-width="4"/>
  <circle cx="59" cy="37" r="7" fill="#2ad8ff" stroke="#12345f" stroke-width="3"/>
  <path d="M30 65c-8 4-13 10-16 17 8-3 14-7 18-15" fill="#ffd341"/>
</svg>
